<?xml version="1.0"?>
<svg xmlns="http://www.w3.org/2000/svg" xmlns:xlink="http://www.w3.org/1999/xlink" xmlns:svgjs="http://svgjs.com/svgjs" version="1.1" width="512" height="512" x="0" y="0" viewBox="0 0 512 512" style="enable-background:new 0 0 512 512" xml:space="preserve" class=""><g transform="matrix(1.14,0,0,1.14,-35.84034927368174,-34.720000000000255)"><path xmlns="http://www.w3.org/2000/svg" d="M344,208c-36.3,0-69.4,14.759-94.139,41.742A149.313,149.313,0,0,1,275.813,273c28.218,31.874,43.871,76.417,44.173,125.553A210.236,210.236,0,0,0,344,400c64.807,0,121.011-28.379,135.952-36.614-.927-43.955-15.09-83.5-40.119-111.777C414.938,223.487,380.9,208,344,208Z" fill="#ffffff" data-original="#000000" style="" class=""/><circle xmlns="http://www.w3.org/2000/svg" cx="344" cy="128" r="64" fill="#ffffff" data-original="#000000" style="" class=""/><path xmlns="http://www.w3.org/2000/svg" d="M168,240c-36.9,0-70.938,15.487-95.833,43.609-24.992,28.23-39.15,67.706-40.114,111.581C48.2,403.413,108.617,432,168,432c64.664,0,120.985-28.389,135.951-36.62-.927-43.952-15.09-83.5-40.118-111.771C238.938,255.487,204.9,240,168,240Z" fill="#ffffff" data-original="#000000" style="" class=""/><circle xmlns="http://www.w3.org/2000/svg" cx="168" cy="160" r="64" fill="#ffffff" data-original="#000000" style="" class=""/></g></svg>
