<?xml version="1.0"?>
<svg xmlns="http://www.w3.org/2000/svg" xmlns:xlink="http://www.w3.org/1999/xlink" xmlns:svgjs="http://svgjs.com/svgjs" version="1.1" width="512" height="512" x="0" y="0" viewBox="0 0 135.46666 135.46667" style="enable-background:new 0 0 512 512" xml:space="preserve" class=""><g><g xmlns="http://www.w3.org/2000/svg" id="layer1"><path id="rect1437" d="m11.698046 20.664689c-6.4813896 0-11.69804983 5.21762-11.69804983 11.69843v.3843l58.39118183 40.80741c2.589688 1.80889 5.967679 2.70969 9.347488 2.7095 3.37798 0 6.755961-.900219 9.34565-2.7095l58.382344-40.79838v-.39294c0-6.48091-5.21666-11.69844-11.69815-11.69844zm-11.69804983 21.85919v60.579661c0 6.48091 5.21666023 11.69843 11.69804983 11.69843h112.070464c6.48149 0 11.69815-5.21752 11.69815-11.69843v-60.570441l-58.382344 40.798279c-2.589689 1.808991-5.96767 2.709501-9.34565 2.709501-3.379809 0-6.7578-.900219-9.347488-2.709501z" paint-order="fill markers stroke" fill="#263238" data-original="#000000" style="" class=""/></g></g></svg>
