<?xml version="1.0"?>
<svg xmlns="http://www.w3.org/2000/svg" xmlns:xlink="http://www.w3.org/1999/xlink" xmlns:svgjs="http://svgjs.com/svgjs" version="1.1" width="512" height="512" x="0" y="0" viewBox="0 0 512 512" style="enable-background:new 0 0 512 512" xml:space="preserve" class=""><g>
<g xmlns="http://www.w3.org/2000/svg">
	<g>
		<g>
			<path d="M191.132,469.361C202.252,494.367,226.91,512,256.012,512c29.102,0,53.76-17.633,64.881-42.639     c-20.521,1.004-41.861,1.679-64.881,1.679C232.993,471.04,211.653,470.364,191.132,469.361z" fill="#ffffff" data-original="#000000" style="" class=""/>
			<path d="M481.886,360.96c-26.993-34.038-72.294-100.946-72.294-166.4c0-64.901-41.697-123.29-102.4-144.753     C306.455,22.2,283.763,0,256.012,0c-27.771,0-50.442,22.2-51.18,49.807c-60.723,21.463-102.42,79.852-102.42,144.753     c0,65.475-45.281,132.362-72.294,166.4c-9.011,11.366-11.797,26.378-7.434,40.161c4.26,13.455,14.868,23.88,28.385,27.853     c23.675,6.984,62.484,14.848,121.672,18.862c25.62,1.72,53.166,2.724,83.272,2.724c30.085,0,57.631-1.004,83.251-2.724     c59.208-4.014,97.997-11.878,121.692-18.862c13.517-3.973,24.105-14.397,28.365-27.853     C493.683,387.338,490.877,372.326,481.886,360.96z" fill="#ffffff" data-original="#000000" style="" class=""/>
		</g>
	</g>
</g>
<g xmlns="http://www.w3.org/2000/svg">
</g>
<g xmlns="http://www.w3.org/2000/svg">
</g>
<g xmlns="http://www.w3.org/2000/svg">
</g>
<g xmlns="http://www.w3.org/2000/svg">
</g>
<g xmlns="http://www.w3.org/2000/svg">
</g>
<g xmlns="http://www.w3.org/2000/svg">
</g>
<g xmlns="http://www.w3.org/2000/svg">
</g>
<g xmlns="http://www.w3.org/2000/svg">
</g>
<g xmlns="http://www.w3.org/2000/svg">
</g>
<g xmlns="http://www.w3.org/2000/svg">
</g>
<g xmlns="http://www.w3.org/2000/svg">
</g>
<g xmlns="http://www.w3.org/2000/svg">
</g>
<g xmlns="http://www.w3.org/2000/svg">
</g>
<g xmlns="http://www.w3.org/2000/svg">
</g>
<g xmlns="http://www.w3.org/2000/svg">
</g>
</g></svg>
